<svg xmlns="http://www.w3.org/2000/svg" viewBox="0 0 453.28 329.69"><defs><style>.a,.e{fill:#389ad6;}.a{opacity:0.1;}.b,.i{fill:#393e46;}.c,.u{fill:none;stroke-miterlimit:10;}.c{stroke:#1a1a1a;stroke-width:2px;}.d{fill:#f7ac08;}.e{font-size:26.07px;}.e,.i,.k{font-family:MyriadPro-Regular, Myriad Pro;}.f{letter-spacing:0.01em;}.g{letter-spacing:0.01em;}.h{letter-spacing:-0.01em;}.i{font-size:45.2px;}.j{letter-spacing:-0.01em;}.k{font-size:17px;}.l{letter-spacing:-0.01em;}.m{letter-spacing:0em;}.n{letter-spacing:0em;}.o,.r,.s,.t{fill:#4d4d4d;}.p{letter-spacing:-0.01em;}.q{letter-spacing:-0.01em;}.r{letter-spacing:0.01em;}.s{letter-spacing:0em;}.t{letter-spacing:-0.01em;}.u{stroke:#393e46;stroke-width:0.91px;}</style></defs><title>comertial_icon(4-certificate)</title><polygon class="a" points="1.04 0.69 1.04 285.09 145.96 285.09 145.96 255.39 306.45 255.39 306.45 285.09 452.35 285.09 452.35 0.69 1.04 0.69"/><path class="b" d="M310.27,252.67q40.1,0,80.21,0c2.09,0,2.73.23,2.73,1.38q-.12,28.83,0,57.64c0,1.17-.67,1.4-2.74,1.37-4.76-.08-20.39-.2-25.15-.16-1.37,0-1.89-.19-1.83-.93a8.45,8.45,0,0,0-.06-2.19c-.05-.7.45-.91,1.72-.87,1.63,0,20.88.34,22.52.37,1.06,0,1.62-.15,1.5-.75a4.07,4.07,0,0,1,0-.78c0-15.4,0-35.07,0-50.48,0-1.51,0-1.51-2.81-1.51H233.85c-2.95,0-3,0-3,1.59,0,15.37,0,35,0,50.36,0,1.56,0,1.56,3,1.56,25.74,0,72.64.23,98.38.19,2.07,0,0,0,2.77,0,.07,1.16-.06,2,0,3.09,0,.69-.48.94-1.75.86-.35,0-.71,0-1.06,0-29.37,0-73.21-.43-102.58-.39-2,0-2.79-.18-2.79-1.37q.12-28.82,0-57.63c0-1.15.65-1.4,2.76-1.39Q270,252.7,310.27,252.67Z" transform="translate(-84.12 0.56)"/><path class="b" d="M358.94,299.81c-1.13,2-.52,3.61,1.31,4.92.44.31.45.66,0,1,0,0,0,.06-.08.08a3.39,3.39,0,0,0-1.35,4.7c.27.58-.06.82-.61.94a1.89,1.89,0,0,1-.34.09,3.28,3.28,0,0,0-3.26,3c-.11.84-.62,1.14-1.5.78,0,0-.08,0-.11,0a3.37,3.37,0,0,0-4.25,1.07c-.6.75-1.25.84-1.89,0a3.46,3.46,0,0,0-4.36-1.07c-.95.37-1.43,0-1.55-.84a3.2,3.2,0,0,0-3.2-3c-1-.11-1.29-.59-.89-1.45a3,3,0,0,0-1.19-4c-.77-.54-.82-1.11,0-1.67a2.94,2.94,0,0,0,1.21-4c-.4-.85-.11-1.35.88-1.46a3.25,3.25,0,0,0,3.21-3c.12-.9.6-1.22,1.53-.84a.5.5,0,0,1,.12,0,3.37,3.37,0,0,0,4.25-1.1c.65-.81,1.31-.71,1.88,0a3.47,3.47,0,0,0,4.38,1c.88-.32,1.38-.07,1.49.79.23,1.86,1.39,2.82,3.37,3.08C358.43,299,359.14,299.05,358.94,299.81Zm-19.39,5.47c0,4.28,3.63,7.69,8.25,7.7s8.28-3.34,8.32-7.52a8,8,0,0,0-8.24-7.85C343.31,297.59,339.57,301,339.55,305.28Z" transform="translate(-84.12 0.56)"/><path class="b" d="M363.18,325.17c-2.13-.32-3.94-.52-5.72-.89a1.42,1.42,0,0,0-1.85.85c-.67,1.29-1.46,2.53-2.19,3.79-.49-.09-.57-.46-.75-.72-1.36-2-2.68-4.11-4.08-6.13-.44-.63-.26-.94.23-1.48,1.7-1.91,3.65-2.67,6.23-1.59,1.13.48,1.86.16,2-1.07a1.43,1.43,0,0,1,.6-1.07Z" transform="translate(-84.12 0.56)"/><path class="b" d="M342.33,329.13c-.86-1.46-1.64-2.7-2.31-4a1.42,1.42,0,0,0-1.85-.86c-1.78.36-3.59.57-5.73.89l5.5-8.3a1.26,1.26,0,0,1,.59,1c.18,1.18.76,1.42,2,1.14,3.74-.85,3.75-.8,6.47,1.76.3.28.54.49.24.92C345.64,324.13,344,326.55,342.33,329.13Z" transform="translate(-84.12 0.56)"/><polyline class="c" points="131.98 284.67 1 284.67 1 1 226.64 1"/><polyline class="c" points="321.3 284.67 452.28 284.67 452.28 1 226.64 1"/><path class="b" d="M492.22,234c-2.7,4.82-1.26,8.64,3.13,11.77,1,.74,1.07,1.58,0,2.4-.07.05-.12.14-.19.19-4.39,2.94-5.32,6.73-3.23,11.26.63,1.36-.16,1.94-1.46,2.24a7.62,7.62,0,0,1-.82.22c-4.7.49-7.21,2.95-7.79,7.26-.27,2-1.48,2.74-3.59,1.87-.08,0-.19,0-.28-.07-4.12-1.65-7.48-.74-10.17,2.57-1.44,1.78-3,2-4.52.05-2.72-3.49-6.26-4.17-10.43-2.57-2.26.88-3.42.12-3.7-2-.55-4.23-3.1-6.56-7.66-7.08-2.35-.26-3.08-1.43-2.13-3.47,1.82-3.91.78-7.1-2.84-9.64-1.85-1.3-2-2.66,0-4,3.68-2.53,4.68-5.73,2.88-9.65-.94-2-.24-3.23,2.11-3.51,4.54-.54,7.11-2.87,7.68-7.07.29-2.15,1.43-2.92,3.67-2,.09,0,.2,0,.28,0,4.15,1.64,7.53.71,10.17-2.61,1.56-2,3.13-1.72,4.51.06,2.78,3.56,6.36,4,10.48,2.47,2.11-.78,3.3-.18,3.56,1.87.56,4.47,3.34,6.76,8.05,7.38C491,232.14,492.7,232.22,492.22,234Zm-46.4,13.09c-.05,10.23,8.69,18.4,19.73,18.43s19.83-8,19.9-18c.08-10.43-8.63-18.72-19.71-18.78C454.82,228.72,445.86,237,445.82,247.12Z" transform="translate(-84.12 0.56)"/><path class="b" d="M502.36,294.72c-5.09-.76-9.44-1.25-13.69-2.13-2.34-.48-3.45.12-4.43,2-1.6,3.1-3.49,6.07-5.25,9.07-1.15-.2-1.35-1.09-1.77-1.72-3.27-4.88-6.43-9.82-9.78-14.65-1.05-1.53-.61-2.26.55-3.55,4.08-4.57,8.74-6.4,14.91-3.81,2.72,1.14,4.46.39,4.86-2.55a3.45,3.45,0,0,1,1.43-2.57C493.48,281.32,497.72,287.72,502.36,294.72Z" transform="translate(-84.12 0.56)"/><path class="b" d="M452.47,304.2c-2.05-3.51-3.93-6.48-5.52-9.57-1-1.9-2.1-2.52-4.44-2-4.25.87-8.59,1.36-13.7,2.14,4.65-7,8.89-13.45,13.15-19.88a3,3,0,0,1,1.41,2.48c.44,2.81,1.82,3.4,4.82,2.72,8.95-2,9-1.9,15.47,4.2.72.67,1.29,1.18.59,2.22C460.38,292.22,456.57,298,452.47,304.2Z" transform="translate(-84.12 0.56)"/><ellipse class="d" cx="381.53" cy="247.72" rx="19.88" ry="18.39"/><text class="e" transform="translate(171.13 291.26) scale(1.08 1)"><tspan class="f">S</tspan><tspan x="13.01" y="0">ee </tspan><tspan class="g" x="44.65" y="0">M</tspan><tspan x="65.76" y="0">o</tspan><tspan class="h" x="80.08" y="0">r</tspan><tspan x="88.34" y="0">e</tspan></text><text class="i" transform="translate(88.82 66.83) scale(1.08 1)"><tspan class="j">C</tspan><tspan x="25.72" y="0">ourse name</tspan></text><text class="k" transform="translate(133.1 143.08) scale(1.08 1)"><tspan class="l">C</tspan><tspan x="9.67" y="0">ourse du</tspan><tspan class="m" x="71.74" y="0">r</tspan><tspan class="n" x="77.21" y="0">a</tspan><tspan x="85.34" y="0">tion : </tspan><tspan class="o" x="124.44" y="0">120hr</tspan></text><text class="k" transform="translate(100.47 198.59) scale(1.08 1)"><tspan class="p">L</tspan><tspan x="7.79" y="0">echu</tspan><tspan class="q" x="42.72" y="0">r</tspan><tspan x="48.11" y="0">es name : </tspan><tspan class="r" x="118.01" y="0">M</tspan><tspan class="o" x="131.78" y="0">o</tspan><tspan class="s" x="141.11" y="0">r</tspan><tspan class="o" x="146.74" y="0">is xucis</tspan><tspan class="t" x="196.62" y="0">h</tspan><tspan class="o" x="205.83" y="0">vili</tspan></text><line class="u" x1="41.25" y1="92.8" x2="412.03" y2="92.8"/></svg>