<svg xmlns="http://www.w3.org/2000/svg" xmlns:xlink="http://www.w3.org/1999/xlink" viewBox="0 0 458.98 327.23"><defs><style>.a{fill:#3fa9f5;}.b{fill:#efedd8;}.c,.i{fill:none;stroke-miterlimit:10;stroke-width:0.25px;}.c{stroke:#d1d1d1;}.d,.e{fill:#393e46;}.e{font-size:26.74px;font-family:MyriadPro-Regular, Myriad Pro;letter-spacing:0em;}.f{letter-spacing:0.01em;}.g{letter-spacing:-0.03em;}.h{letter-spacing:0.01em;}.i{stroke:#4c4c4c;}.j{fill:url(#a);}.k{fill:url(#b);}.l{fill:url(#c);}.m{opacity:0.63;}</style><linearGradient id="a" x1="221.4" y1="175.42" x2="292.87" y2="175.42" gradientUnits="userSpaceOnUse"><stop offset="0.23" stop-color="#00a7f5"/><stop offset="1" stop-color="#fff" stop-opacity="0.9"/></linearGradient><linearGradient id="b" x1="266.71" y1="155.19" x2="320.26" y2="155.19" xlink:href="#a"/><linearGradient id="c" x1="97.58" y1="236.55" x2="128.43" y2="190.6" gradientUnits="userSpaceOnUse"><stop offset="0" stop-color="#a40000"/><stop offset="0.21" stop-color="#a50202"/><stop offset="0.29" stop-color="#a70909"/><stop offset="0.34" stop-color="#ab1414"/><stop offset="0.39" stop-color="#b12525"/><stop offset="0.43" stop-color="#b93b3b"/><stop offset="0.46" stop-color="#c35757"/><stop offset="0.49" stop-color="#ce7777"/><stop offset="0.52" stop-color="#dc9d9d"/><stop offset="0.54" stop-color="#ebc8c8"/><stop offset="0.57" stop-color="#fcf6f6"/><stop offset="0.57" stop-color="#fff"/><stop offset="0.57" stop-color="#fcf6f6"/><stop offset="0.59" stop-color="#ebc8c8"/><stop offset="0.6" stop-color="#dc9d9d"/><stop offset="0.62" stop-color="#ce7777"/><stop offset="0.64" stop-color="#c35757"/><stop offset="0.66" stop-color="#b93b3b"/><stop offset="0.68" stop-color="#b12525"/><stop offset="0.71" stop-color="#ab1414"/><stop offset="0.74" stop-color="#a70909"/><stop offset="0.79" stop-color="#a50202"/><stop offset="0.92" stop-color="#a40000"/></linearGradient></defs><title>comertial_icon(3-book)</title><polygon class="a" points="4.35 210.4 262.96 55.31 458.93 172.83 201.48 327.23 4.35 210.4"/><path class="b" d="M537.29,120.55s-7.57,18.39-7.57,31.41,5.5,21.11,5.5,21.11L283,324.26,91.19,211.52V159L283,272.94Z" transform="translate(-81.51 -1.02)"/><polygon class="a" points="4.4 155.09 263.01 0 458.99 117.53 201.53 271.92 4.4 155.09"/><polygon class="a" points="4.4 155.09 4.35 210.4 9.69 210.5 9.69 158.01 4.4 155.09"/><polyline class="c" points="9.69 158.72 201.48 272.75 455.47 120.3"/><polyline class="c" points="9.69 164.53 201.48 278.56 452.83 127.69"/><polyline class="c" points="9.69 170.34 201.48 284.37 450.75 134.75"/><polyline class="c" points="9.69 176.15 201.48 290.18 449.21 141.48"/><polyline class="c" points="9.69 181.95 201.48 295.99 448.34 147.81"/><polyline class="c" points="9.69 187.76 201.48 301.8 448.34 153.62"/><polyline class="c" points="9.69 193.57 201.48 307.6 448.94 159.07"/><polyline class="c" points="9.69 199.38 201.48 313.41 450.19 164.13"/><polyline class="c" points="9.69 205.19 201.48 319.22 452 168.85"/><polyline class="d" points="201.48 66.52 225.12 52.34 205.3 89.94 265.69 76.67 242.04 90.84"/><polyline class="d" points="208.84 62.1 232.48 47.92 212.66 85.53 273.05 72.25 249.4 86.43"/><text class="e" transform="matrix(0.74, 0.45, -0.86, 0.51, 245.43, 92.02)">M<tspan class="f" x="21.45" y="0">AIN</tspan><tspan class="g" x="62.44" y="0"> </tspan><tspan class="h" x="67.22" y="0">TITLE</tspan></text><line class="i" x1="9.69" y1="158.22" x2="4.4" y2="155.09"/><line class="i" x1="9.69" y1="210.5" x2="4.35" y2="210.4"/><path class="j" d="M292,186a1,1,0,0,0-.42-.27l-12.28-4.81,5.73-3.44c.66-.4.73-1,.16-1.34L279,172.4a1.9,1.9,0,0,0-1.08-.23l-8.26.36-6.39-3.83.6-5a.68.68,0,0,0-.38-.65l-6.21-3.72a2.39,2.39,0,0,0-2.23.1l-5.68,3.4L242,155.54a6.1,6.1,0,0,0-.88-.88,2.24,2.24,0,0,0-2.18-.1c-.71.32-.94.89-.54,1.29l.77.77a3.47,3.47,0,0,1,.6,3.46,5.2,5.2,0,0,1-.76,1.34l-2.91-2.8a2.93,2.93,0,0,0-.63-.75c-2.18-1.83-6.69-2-10.08-.44h0c-4,1.9-5.22,5.21-2.61,7.39a7.49,7.49,0,0,0,.89.64l.46.22,0,0,12.45,6-10.88.69c-.87.06-1.6.52-1.63,1a.68.68,0,0,0,.38.62l3.11,1.86-3.59,2.15c-.65.4-.73,1-.15,1.34a2.08,2.08,0,0,0,1.08.23l21.63-.94,6.39,3.83-1.56,13a.68.68,0,0,0,.38.65,1.78,1.78,0,0,0,.49.18,2.55,2.55,0,0,0,1.74-.28l3.59-2.15,3.1,1.86a2.39,2.39,0,0,0,2.23-.09,1.08,1.08,0,0,0,.54-.66l1.16-6.61,10.4,7.36.08.05a1.82,1.82,0,0,0,.28.13,17.29,17.29,0,0,0,13.25-2C294,190.65,293.19,187.3,292,186Zm-62.5-25.6h0a1.14,1.14,0,0,1,1,0l.06.05,2.48-1.16c.68.75.22,1.77-1.07,2.37a3,3,0,0,1-2.87-.12C228.66,161.19,228.84,160.67,229.47,160.38Zm6.15,3.64c-3.42,1.6-8,1.4-10.17-.44h0c-1.67-1.4-.92-3.5,1.66-4.72a6.72,6.72,0,0,1,4.55-.36,6.43,6.43,0,0,0-3.91.45c-2.09,1-2.69,2.69-1.35,3.81,1.57,1.31,4.81,1.45,7.25.32h0a6.43,6.43,0,0,0,1.84-1.27l1.51,1.44A13,13,0,0,1,235.62,164Zm-3.68,2.88a17.1,17.1,0,0,0,5.38-1.45c2.81-1.31,4.79-3.16,5.53-5.16l4,4.05-5,3c-.66.39-.73,1-.16,1.33l4.1,2.46-4.5.29Zm14.79,9.93-17.83.77,1.89-1.13c.66-.4.73-1,.16-1.34l-1.76-1,10.79-.69.14.08.13-.09,13.7-.88Zm10.75-6.44-7.61.33-4.74-2.85,10.75-6.45,4.74,2.85-.55,4.56Zm6.74,4.64-9.55,5.73-5.17-3.1,11.94-7.17,5.17,3.1Zm5.16-.61,7.61-.33,4.75,2.84L271,183.38l-4.75-2.85.55-4.56Zm-8.74,18.51-1.76-1.05a2.39,2.39,0,0,0-2.23.1l-1.89,1.13L256,182.42l7.22-4.33-1.46,8.24-.12.06.1.08Zm16.68,1.4-12.26-8.68.47-2.68,4.1,2.46a2.42,2.42,0,0,0,2.23-.09l5-3,12.43,4.87c.41.6,1.53,2.89-2.77,5.46A12.28,12.28,0,0,1,277.32,194.33Z" transform="translate(-81.51 -1.02)"/><path class="k" d="M273.77,139.13h0l5.29,7.15L268,152.92a1.45,1.45,0,0,0-.37.31c-.18.22-4.27,5.51,6.65,12.06l2.39-1.44c-8.53-5.11-6.81-9-6.33-9.85l10-6,6.79,9.18a1.17,1.17,0,0,0,.66.4l6.71,1.78-1,.58a7.66,7.66,0,0,0-5.17.64l-14,5.93,1.56,1.49,10.67-4.51a1.54,1.54,0,0,0,.24.48l-8.58,5.14,2.07,1.25,8.58-5.15a6.5,6.5,0,0,0,.79.14l-7.52,6.4,2.49.94,9.88-8.41c1.34-.9,1.77-2.12,1.09-3.11l1.74-1,5.73,1.52L292,168.31a10.35,10.35,0,0,1-1.47.08l-.48,1.9a13.36,13.36,0,0,0,3-.26,2.32,2.32,0,0,0,.64-.26L306,162.41l11.91,3.17a2.4,2.4,0,0,0,2.17-.51.62.62,0,0,0,.1-.85l-13.36-18a1.17,1.17,0,0,0-.65-.4l-30.09-8a2.37,2.37,0,0,0-2.16.51A.63.63,0,0,0,273.77,139.13ZM290,163.28c-.57-.34-.5-.94.16-1.34a2.39,2.39,0,0,1,2.23-.09c.57.34.5.94-.16,1.33A2.39,2.39,0,0,1,290,163.28Zm14-15.86,11.35,15.32-15.64-4.16a.64.64,0,0,0,.17-.61l-1.17-3.86a7.61,7.61,0,0,0,1.29-.57c2-1.19,2.19-3,.48-4a7.18,7.18,0,0,0-6.69.29c-2,1.18-2.19,3-.48,4a5.37,5.37,0,0,0,2.22.65l1,3.25-6.72-1.79L278.5,140.61ZM298,152.3a2.39,2.39,0,0,1-2.23.09c-.57-.34-.5-.94.16-1.33a2.39,2.39,0,0,1,2.23-.1C298.72,151.3,298.65,151.9,298,152.3Z" transform="translate(-81.51 -1.02)"/><path class="l" d="M139.53,205.9A16,16,0,0,0,124.28,212c-6,8-.66,14,.67,15.47C136.74,238.29,104.28,250,104.28,250L101.7,235.5l-20.19.87s18.82-10.48,17.14-19.93a7.36,7.36,0,0,0-2.5-4.06c-1.33-1.43-6.65-7.23-.59-15.24s18.21-6.61,18.21-6.61Z" transform="translate(-81.51 -1.02)"/><path class="m" d="M139.53,205.9s-13.12,7.92-12,27a6.6,6.6,0,0,0-2.56-5.36,11.11,11.11,0,0,1-2.28-12.89A15.9,15.9,0,0,1,139.53,205.9Z" transform="translate(-81.51 -1.02)"/></svg>