<svg xmlns="http://www.w3.org/2000/svg" viewBox="0 0 132 132"><defs><style>.a{fill:#fff;}.b{fill:#393e46;stroke:#fff;stroke-miterlimit:10;stroke-width:7px;}</style></defs><title>hero_icon(book)</title><rect class="a" x="29.99" y="31.49" width="72" height="70"/><circle class="b" cx="66" cy="66" r="62.5"/><path class="b" d="M70.21,48.56S77,41.72,80.72,43.3a29.25,29.25,0,0,0,7.1,1.84c.79.26,12.62,1.84,18.14-.26V92.46H89.66a10.69,10.69,0,0,0-9.73-1.84,22.57,22.57,0,0,0-5.21,2.08,2.72,2.72,0,0,1-4-2.33Z" transform="translate(-3.67 -1.23)"/><path class="b" d="M69.42,48.56S62.58,41.72,58.9,43.3a29.25,29.25,0,0,1-7.1,1.84C51,45.4,39.18,47,33.66,44.88V92.46H50a10.69,10.69,0,0,1,9.73-1.84,22.67,22.67,0,0,1,5.22,2.08,2.72,2.72,0,0,0,4-2.33Z" transform="translate(-3.67 -1.23)"/><path class="b" d="M70.21,46.72S77,39.88,80.72,41.46a30.31,30.31,0,0,0,7.1,1.84c.79.26,12.62,1.84,18.14-.27V90.62H89.66a10.69,10.69,0,0,0-9.73-1.84,22.57,22.57,0,0,0-5.21,2.08,2.72,2.72,0,0,1-4-2.33Z" transform="translate(-3.67 -1.23)"/><path class="b" d="M69.42,46.72s-6.84-6.84-10.52-5.26a30.31,30.31,0,0,1-7.1,1.84c-.79.26-12.62,1.84-18.14-.27V90.62H50a10.69,10.69,0,0,1,9.73-1.84,22.67,22.67,0,0,1,5.22,2.08,2.72,2.72,0,0,0,4-2.33Z" transform="translate(-3.67 -1.23)"/></svg>