<svg xmlns="http://www.w3.org/2000/svg" viewBox="0 0 132.71 132.71"><defs><style>.a{fill:#fff;}.b,.c{fill:#393e46;}.b{stroke:#fff;stroke-miterlimit:10;stroke-width:7px;}.d{fill:#221e1f;}</style></defs><title>hero_icon(guy)</title><rect class="a" x="30.35" y="31.35" width="72" height="70"/><circle class="b" cx="66.35" cy="66.35" r="62.85"/><circle class="c" cx="66.07" cy="32.83" r="8.14"/><path class="a" d="M69.39,43.47a9.26,9.26,0,1,1,9.26-9.26A9.27,9.27,0,0,1,69.39,43.47Zm0-16.28a7,7,0,1,0,7,7A7,7,0,0,0,69.39,27.19Z" transform="translate(-3.31 -1.38)"/><path class="c" d="M69.11,43.47s11.17,0,14.59,3.37,3.36,3.92,3.36,14.59v1.68h8.42v5.61H87.62l-2.8,35.92H69.67" transform="translate(-3.31 -1.38)"/><path class="a" d="M85.86,105.76H69.67v-2.24H83.78L86.59,67.6h7.77V64.23H85.94v-2.8c0-10.66,0-10.79-3-13.8-2.53-2.53-10.82-3-13.79-3V42.35c1.2,0,11.75,0,15.39,3.69s3.7,4.58,3.7,15.39V62H96.6v7.85H88.66Z" transform="translate(-3.31 -1.38)"/><line class="d" x1="75.89" y1="60.61" x2="75.89" y2="53.87"/><path class="a" d="M79.21,63.11A1.13,1.13,0,0,1,78.08,62V55.25a1.13,1.13,0,0,1,2.25,0V62A1.12,1.12,0,0,1,79.21,63.11Z" transform="translate(-3.31 -1.38)"/><line class="d" x1="83.75" y1="61.73" x2="66.35" y2="61.73"/><rect class="a" x="66.35" y="60.61" width="17.4" height="2.24"/><line class="d" x1="84.31" y1="67.34" x2="66.35" y2="67.34"/><rect class="a" x="66.35" y="66.22" width="17.96" height="2.24"/><path class="c" d="M69.11,43.47s-10.06,0-13.47,3.37-3.37,3.92-3.37,14.59v1.68H43.85v5.61h7.86l2.8,35.92H69.67" transform="translate(-3.31 -1.38)"/><path class="a" d="M69.67,105.76H53.48L50.67,69.84H42.73V62h8.42v-.56c0-10.81,0-11.69,3.69-15.39s13.84-3.69,14.27-3.69v2.24H69c-2.74,0-10.09.54-12.59,3-3,3-3,3.14-3,13.8v2.8H45V67.6h7.78l2.8,35.92H69.67Z" transform="translate(-3.31 -1.38)"/><line class="d" x1="56.25" y1="60.61" x2="56.25" y2="53.87"/><path class="a" d="M59.57,63.11A1.13,1.13,0,0,1,58.44,62V55.25a1.13,1.13,0,0,1,2.25,0V62A1.12,1.12,0,0,1,59.57,63.11Z" transform="translate(-3.31 -1.38)"/><line class="d" x1="48.96" y1="61.73" x2="66.35" y2="61.73"/><rect class="a" x="48.96" y="60.61" width="17.4" height="2.24"/><line class="d" x1="48.39" y1="67.34" x2="66.35" y2="67.34"/><rect class="a" x="48.39" y="66.22" width="17.96" height="2.24"/><circle class="a" cx="66.91" cy="84.74" r="6.45"/><path class="a" d="M70.23,92.85A6.74,6.74,0,1,1,77,86.12,6.74,6.74,0,0,1,70.23,92.85Zm0-12.9a6.17,6.17,0,1,0,6.17,6.17A6.18,6.18,0,0,0,70.23,80Z" transform="translate(-3.31 -1.38)"/></svg>