<svg xmlns="http://www.w3.org/2000/svg" viewBox="0 0 131.97 131.97"><defs><style>.a{fill:#fff;}.b{fill:#393e46;stroke:#fff;stroke-miterlimit:10;stroke-width:7px;}.c{fill:#fdfdfd;}.d{fill:#939598;}</style></defs><title>hero_icon(diploma)</title><rect class="a" x="29.98" y="30.98" width="72" height="70"/><circle class="b" cx="65.98" cy="65.98" r="62.48"/><path class="c" d="M69.78,38.3q19.1,0,38.2,0c1,0,1.3.21,1.3,1.27q0,26.42,0,52.84c0,1.07-.32,1.28-1.3,1.25-2.27-.07-4.54,0-6.81,0-.65,0-.9-.17-.87-.85,0-1.15,0-2.3,0-3.45,0-.64.21-.83.82-.8.78,0,1.56,0,2.34,0,.5,0,.77-.13.71-.68,0-.24,0-.48,0-.71V44.78c0-1.39,0-1.4-1.33-1.4H36.59c-1.41,0-1.41,0-1.41,1.46V87.11c0,1.43,0,1.43,1.42,1.43q18.39,0,36.78,0c1,0,1.42.18,1.31,1.26a22.17,22.17,0,0,0,0,3c0,.63-.23.86-.83.79a4.34,4.34,0,0,0-.51,0q-21,0-42,0c-1,0-1.33-.16-1.33-1.25q.06-26.42,0-52.84c0-1,.31-1.28,1.32-1.27Q50.57,38.33,69.78,38.3Z" transform="translate(-3.68 -1.75)"/><path class="c" d="M99.15,80.84a3.26,3.26,0,0,0,1.11,4.5.52.52,0,0,1,0,.92.27.27,0,0,1-.07.08,3.24,3.24,0,0,0-1.14,4.31c.22.52-.06.74-.52.86-.1,0-.19.07-.29.08a2.86,2.86,0,0,0-2.76,2.79c-.1.77-.53,1.05-1.27.71l-.1,0a2.73,2.73,0,0,0-3.61,1c-.51.68-1.06.77-1.6,0a2.79,2.79,0,0,0-3.7-1c-.8.33-1.21,0-1.31-.78a2.83,2.83,0,0,0-2.72-2.71c-.83-.1-1.09-.54-.75-1.33a2.82,2.82,0,0,0-1-3.69c-.65-.5-.7-1,0-1.53a2.82,2.82,0,0,0,1-3.7c-.33-.78-.08-1.23.75-1.34a2.85,2.85,0,0,0,2.72-2.71c.1-.82.51-1.12,1.3-.77,0,0,.07,0,.1,0a2.74,2.74,0,0,0,3.61-1c.55-.75,1.11-.65,1.6,0a2.81,2.81,0,0,0,3.71.94c.75-.3,1.17-.07,1.26.72a3,3,0,0,0,2.86,2.83C98.72,80.11,99.32,80.14,99.15,80.84Zm-16.45,5a7,7,0,1,0,7.06-7A7.06,7.06,0,0,0,82.7,85.85Z" transform="translate(-3.68 -1.75)"/><path class="c" d="M69.62,62.35c-8.16,0-16.32,0-24.48,0-1.1,0-1.16-.46-1.17-1.32s.11-1.32,1.19-1.32q24.53.06,49,0c.38,0,1-.2,1,.33a3.29,3.29,0,0,1-.1,2.08c-.17.33-.69.16-1,.16H69.62Z" transform="translate(-3.68 -1.75)"/><path class="c" d="M69.64,67.49H94c.42,0,1-.22,1.21.23a4.07,4.07,0,0,1,0,2.11c0,.22-.31.22-.52.23h-.91q-24.17,0-48.34,0c-.47,0-1.15.29-1.37-.26a3.44,3.44,0,0,1,0-2c.1-.44.56-.29.87-.29H69.64Z" transform="translate(-3.68 -1.75)"/><path class="c" d="M69.75,52.12c4.2,0,8.4,0,12.6,0,1.12,0,1.07.55,1.07,1.31s.08,1.34-1,1.33q-12.7-.07-25.4,0c-1.24,0-1-.69-1-1.41s0-1.24,1-1.23C61.22,52.16,65.49,52.12,69.75,52.12Z" transform="translate(-3.68 -1.75)"/><path class="c" d="M55,79.1c-3.35,0-6.7,0-10,0-.88,0-1.17-.28-1-1.1a1.34,1.34,0,0,0,0-.4c-.13-.87.19-1.17,1.11-1.16,3.31.06,6.62,0,9.94,0s6.49.05,9.74,0c1.07,0,1.4.34,1.24,1.33a1.5,1.5,0,0,0,0,.3c.12.78-.19,1-1,1C61.65,79.08,58.33,79.1,55,79.1Z" transform="translate(-3.68 -1.75)"/><path class="d" d="M82.7,85.85a7,7,0,1,1,14,.17,7,7,0,0,1-14-.17Zm7,5.77a5.75,5.75,0,0,0,5.75-5.73,5.78,5.78,0,1,0-5.75,5.73Z" transform="translate(-3.68 -1.75)"/><path class="c" d="M89.75,91.62A5.78,5.78,0,0,1,84,85.93a5.78,5.78,0,1,1,11.55,0A5.75,5.75,0,0,1,89.75,91.62ZM89.67,90a4.17,4.17,0,1,0-4.12-4.15A4.15,4.15,0,0,0,89.67,90Z" transform="translate(-3.68 -1.75)"/><path class="d" d="M89.67,90a4.17,4.17,0,0,1,.08-8.33A4.17,4.17,0,1,1,89.67,90Z" transform="translate(-3.68 -1.75)"/></svg>