<?xml version="1.0" encoding="utf-8"?>
<!-- Generator: Adobe Illustrator 22.1.0, SVG Export Plug-In . SVG Version: 6.00 Build 0)  -->
<svg version="1.1" id="Layer_1" xmlns="http://www.w3.org/2000/svg" xmlns:xlink="http://www.w3.org/1999/xlink" x="0px" y="0px"
	 viewBox="0 0 1366 145" enable-background="new 0 0 1366 145" xml:space="preserve">
<circle fill="none" stroke="#393E46" stroke-width="3" stroke-miterlimit="10" cx="680" cy="81" r="62.7"/>
<g>
	<path fill="none" stroke="#393E46" stroke-width="2.0204" stroke-miterlimit="10" d="M636.4,127.2c0,0,0-38.8,43.9-38.8
		c43.9,0,43.2,38.8,43.2,38.8"/>
	<circle fill="none" stroke="#393E46" stroke-width="2.4823" stroke-miterlimit="10" cx="681.5" cy="66.5" r="21.3"/>
</g>
<g>
	<path opacity="0.57" fill="none" stroke="#393E46" stroke-width="0.6882" stroke-miterlimit="10" d="M1114.7,81.5"/>
	<path opacity="0.57" fill="none" stroke="#393E46" stroke-width="0.6882" stroke-miterlimit="10" d="M761.2,81.5"/>
</g>
<path opacity="0.57" fill="none" stroke="#393E46" stroke-width="0.688" stroke-miterlimit="10" d="M680,0.3
	c44.8,0,81.2,36.3,81.2,81.2"/>
<path opacity="0.57" fill="none" stroke="#393E46" stroke-width="0.6882" stroke-miterlimit="10" d="M598.8,81.5
	c0-44.8,36.3-81.2,81.2-81.2"/>
<line opacity="0.57" fill="none" stroke="#393E46" stroke-width="0.4864" stroke-miterlimit="10" x1="761.2" y1="81.5" x2="1063.4" y2="81.5"/>
<line opacity="0.57" fill="none" stroke="#393E46" stroke-width="0.4842" stroke-miterlimit="10" x1="299.3" y1="81.5" x2="598.8" y2="81.5"/>
<line opacity="0.57" fill="none" stroke="#393E46" stroke-width="0.688" stroke-miterlimit="10" x1="1366.2" y1="71.4" x2="760.5" y2="71.4"/>
<line opacity="0.57" fill="none" stroke="#393E46" stroke-width="0.688" stroke-miterlimit="10" x1="-0.8" y1="71.4" x2="599.4" y2="71.4"/>
<rect x="585.9" y="72.2" fill="#EEEEEE" width="19.1" height="9"/>
<rect x="751.6" y="72.2" fill="#EEEEEE" width="19.1" height="9"/>
</svg>
